<svg id="图层_1" data-name="图层 1" xmlns="http://www.w3.org/2000/svg" viewBox="0 0 1000 1000"><defs><style>.cls-1{fill:#ff5c5d;}.cls-1,.cls-10,.cls-11,.cls-13,.cls-16,.cls-18,.cls-19,.cls-2,.cls-20,.cls-23,.cls-3,.cls-4,.cls-6,.cls-7,.cls-8,.cls-9{stroke:#000;}.cls-1,.cls-10,.cls-11,.cls-13,.cls-19,.cls-2,.cls-20,.cls-22,.cls-23,.cls-3,.cls-4,.cls-6,.cls-7,.cls-8,.cls-9{stroke-linecap:round;stroke-linejoin:round;}.cls-18,.cls-2,.cls-22{fill:none;}.cls-3,.cls-5{fill:#e83647;}.cls-4{fill:#fc746d;}.cls-6{fill:#40a2d3;}.cls-24,.cls-7{fill:#57b9ea;}.cls-9{fill:#ffa861;}.cls-10,.cls-21{fill:#f7b521;}.cls-11{fill:#f9d0b2;}.cls-12{fill:#f4ae7f;}.cls-13{fill:#c17057;}.cls-14{fill:#b2563d;}.cls-15{fill:#f78b3c;}.cls-16{fill:#fff;}.cls-16,.cls-18{stroke-miterlimit:10;}.cls-17{fill:#fce6a9;}.cls-19{fill:#59d8b1;}.cls-20{fill:#ffd55f;}.cls-22{stroke:#fff;}.cls-23{fill:#99d8ff;}.cls-25{fill:#c9112b;opacity:0.59;}.cls-26{fill:#31bc8a;}.cls-27{fill:#606060;}</style></defs><polygon class="cls-1" points="816.91 504.35 706.02 506.52 687.26 521.85 801.46 519.42 816.91 504.35"/><path class="cls-2" d="M719.7,533c-3.79-65.67,4.46-113.62,22.51-116.49,19.57-3.1,44.59,47.7,61.59,120.19"/><polygon class="cls-3" points="353.43 170.09 389.23 214.12 441.87 148.69 403.28 149.82 353.43 170.09"/><polygon class="cls-1" points="398.9 123.7 441.87 125.68 441.87 148.69 403.28 149.82 398.9 123.7"/><polygon class="cls-4" points="203.81 151.68 217.74 225.24 403.28 149.82 398.9 123.7 203.81 151.68"/><polygon class="cls-5" points="203.81 151.68 244.06 174.47 224.71 208.18 215.49 213.36 203.81 151.68"/><polygon class="cls-2" points="203.81 151.68 217.74 225.24 403.28 149.82 398.9 123.7 203.81 151.68"/><polyline class="cls-2" points="209.2 154.74 244.06 174.47 397.65 137.39"/><polygon class="cls-6" points="307.51 377.42 215.26 345.64 331.29 165.22 372.13 187.6 307.51 377.42"/><polygon class="cls-7" points="322.53 153.21 365 176.41 372.13 187.6 331.29 165.22 322.53 153.21"/><path class="cls-8" d="M518.35,166.43c-3.89,4.23-44.09,1.63-48.83,4.78a51.44,51.44,0,0,1-32.94,8.28c-6.43-.65-13.21-2.7-18-7.2-5.56-5.22-6.79-13.41-6.27-20.71,1.5-20.72,20.09-31.38,35.58-41.67,17.57-11.68,41.67-23.3,43.27-47.32C491.14,62.59,553.15,128.66,518.35,166.43Z"/><polygon class="cls-9" points="388.83 385.62 301.98 358.95 375.08 153.21 418.43 175.76 388.83 385.62"/><polygon class="cls-10" points="375.08 153.21 425.93 179.66 415.33 168.43 375.08 153.21"/><path class="cls-11" d="M345.64,636.45l-183.1,57.76L212.24,795s18.52-38.24,70.54-54.27l102.5-32.4Z"/><path class="cls-12" d="M287.29,654.9h0l-37.19,11.69,3.11,14.46,21.72-7.49a34,34,0,0,1,26.57,1.86l55.57,28.35h0C319,682.18,294.42,661.27,287.29,654.9Z"/><path class="cls-2" d="M345.64,636.45l-183.1,57.76L212.24,795s18.52-38.24,70.54-54.27l102.5-32.4Z"/><path class="cls-13" d="M134.37,721.28l-6.12-20.74a7.15,7.15,0,0,1,5.11-9l62.84-15.9L181.08,715l-37.82,11.17A7.17,7.17,0,0,1,134.37,721.28Z"/><path class="cls-14" d="M196.2,675.68h0l-62.84,15.9a7.15,7.15,0,0,0-5.11,9l6.12,20.74,1.25-9.13a15.4,15.4,0,0,1,12.54-13.08l33-5.9C184.11,685.67,189.49,680,196.2,675.68Z"/><path class="cls-2" d="M134.37,721.28l-6.12-20.74a7.15,7.15,0,0,1,5.11-9l62.84-15.9L181.08,715l-37.82,11.17A7.17,7.17,0,0,1,134.37,721.28Z"/><path class="cls-13" d="M248.61,659.69l21,97.71c-.15-.74-23.16,12.17-25.13,13.61a106.17,106.17,0,0,0-22.69,22.6c-13.82,18.73-18.93,42-28,63.09-2.88,6.67-8.82,14.39-17,10.89-14.46-6.15-17.9-33.91-18.72-47.06-2.65-42.87,7.59-87.68,23.18-127.36C190.72,668.84,225.94,664,248.61,659.69Z"/><path class="cls-14" d="M253.2,681.05c-2.67-12.44-4.59-21.36-4.59-21.36-22.67,4.33-57.89,9.15-67.45,33.48-15.59,39.68-25.83,84.49-23.18,127.36.15,2.3.37,5.06.72,8.07C166.27,661,253.2,681.05,253.2,681.05Z"/><path class="cls-2" d="M248.61,659.69l21,97.71c-.15-.74-23.16,12.17-25.13,13.61a106.17,106.17,0,0,0-22.69,22.6c-13.82,18.73-18.93,42-28,63.09-2.88,6.67-8.82,14.39-17,10.89-14.46-6.15-17.9-33.91-18.72-47.06-2.65-42.87,7.59-87.68,23.18-127.36C190.72,668.84,225.94,664,248.61,659.69Z"/><path class="cls-11" d="M528,746.78,516.8,938.45l111.86-10.6S599.51,896.94,603,842.62l6.18-107.32Z"/><path class="cls-12" d="M527.26,759h0l-5.11,87.77L537,849.07V808.18a39.81,39.81,0,0,1,33.67-39.39,169.41,169.41,0,0,0,37.28-10.57h0A379.64,379.64,0,0,1,527.26,759Z"/><path class="cls-2" d="M528,746.78,516.8,938.45l111.86-10.6S599.51,896.94,603,842.62l6.18-107.32Z"/><path class="cls-9" d="M378,467.27,285.12,652.93s142.14,134.89,339.4,103V472.84l-12.4-70.19-157.3-17Z"/><path class="cls-9" d="M378,467.27,285.12,652.93s142.14,134.89,339.4,103V472.84l-12.4-70.19-157.3-17Z"/><path class="cls-15" d="M349.57,593.67l46.53-98.09-27.3-10L285.12,652.93s72.27,68.57,185.25,96.37l2.71-.84c-46.3-12.6-77.78-30-99.15-47.25A89.18,89.18,0,0,1,349.57,593.67Z"/><path class="cls-15" d="M478.27,404.81l-5.43,18.44,109.93-8.32-24,.17A456.64,456.64,0,0,1,478.27,404.81Z"/><path class="cls-2" d="M378,467.27,285.12,652.93s142.14,134.89,339.4,103V472.84l-12.4-70.19-157.3-17Z"/><path class="cls-16" d="M491.4,70s-9,48.75,31,53.48c0,0,.38,20.07-19.39,16.78-20.33-3.39-37.28-4-56.6,6-25.3,13-44.83,34.52-61.74,56.94-18,23.83-36.28,49.21-50.27,75.65-13.34,25.2-20.4,57.9-7.75,84.78C341.93,396,377.58,402.13,409,391.14l-48.18,91.5L446.17,514l32.1-109.14s71,16.77,127.41,7.82l6.71,97.24,14.53-10.06V430.52s22.91,19.56,46.94,29.06l28.5-64.27s-54.21-35.21-76.56-82.15l-3.91-93.32L582.77,51.62,519.06,19.77h-9.47Z"/><path class="cls-17" d="M605.58,412.65,598.76,341l4.86-114.48a55.59,55.59,0,0,1-11.57-7.78,52.89,52.89,0,0,1-75.47-6.5c-.35,1.51-.74,3-1.2,4.56l-7.07-6.62h0l9.29,8.7s-.26.85-.77,2.42C527.07,232.64,545.36,247,571,244.36a17.71,17.71,0,0,1,19.45,16.9L594,342.91l3.34,43a31.42,31.42,0,0,1-14.52,29h0A214.3,214.3,0,0,0,605.58,412.65Z"/><path class="cls-18" d="M491.4,70s-9,48.75,31,53.48c0,0,.38,20.07-19.39,16.78-20.33-3.39-37.28-4-56.6,6-25.3,13-44.83,34.52-61.74,56.94-18,23.83-36.28,49.21-50.27,75.65-13.34,25.2-20.4,57.9-7.75,84.78C341.93,396,377.58,402.13,409,391.14l-48.18,91.5L446.17,514l32.1-109.14s71,16.77,127.41,7.82l6.71,97.24,14.53-10.06V430.52s22.91,19.56,46.94,29.06l28.5-64.27s-54.21-35.21-76.56-82.15l-3.91-93.32L582.77,51.62,519.06,19.77h-9.47Z"/><path class="cls-11" d="M610.43,178.67l1.69-.82L582.77,51.62,519.06,19.77h-9.47L491.4,70s-9,48.75,31,53.48c0,0,.38,20.07-19.39,16.78A135.34,135.34,0,0,0,479.71,138l24.86,40.65a52.93,52.93,0,1,0,105.86,0Z"/><path class="cls-2" d="M610.43,178.67l1.69-.82L582.77,51.62,519.06,19.77h-9.47L491.4,70s-9,48.75,31,53.48c0,0,.38,20.07-19.39,16.78A135.34,135.34,0,0,0,479.71,138l24.86,40.65a52.93,52.93,0,1,0,105.86,0Z"/><path class="cls-8" d="M519.09,12.3A54.24,54.24,0,0,0,499,27c-10.23,12.11-11.64,28.08-7.61,43,0,0,13.64-16.32,21.35-45.38,0,0,9.19,45.08,47.45,53.38,0,0,5.87-6.86,13.66-3.32A13.09,13.09,0,0,1,581.28,86c.29,5.19-1.14,12.24-9.71,16.1-1.36,11.77-2.13,23.65-2.54,35.49-.68,19.81-1.33,41.22,7.11,59.85,8.57,18.91,27.27,34.34,48.72,34.19a19.2,19.2,0,0,0,14.85-6.88c3.18-3.92,5.62-10.05,4.67-19.56a46.32,46.32,0,0,0-5-16.5,191.69,191.69,0,0,1-18.49-55.55c-3.38-20-3.54-40.36-6.22-60.45-2-15-7.35-30.35-16.78-42.34A60,60,0,0,0,566.08,9.38C550.73,5.28,533.74,6,519.09,12.3Z"/><circle cx="536.11" cy="77.94" r="4.04"/><circle cx="504.57" cy="77.23" r="4.04"/><path class="cls-11" d="M522.48,80.89a5.67,5.67,0,1,0-4.22,9.58"/><path class="cls-2" d="M513.92,94.9a11.72,11.72,0,0,0,21.17-4.5"/><path class="cls-2" d="M566.82,82s8.76-.37,5.37,8.3"/><path class="cls-2" d="M572.48,84.57s-7.15,0-7.52,8.16"/><path class="cls-19" d="M625.8,313.16l-3.42-81.62a47.2,47.2,0,0,1-18.76-5L598.76,341l6.82,71.65.1,0,.26,3.76h0l6.45,93.48,14.53-10.06V430.52s22.91,19.56,46.94,29.06l28.5-64.27S648.15,360.1,625.8,313.16Z"/><path class="cls-12" d="M515.89,191.87c-7-26.64,7.17-49,27-68.09l2.18-2.09a70.61,70.61,0,0,1-22.67,1.77h0s.17,9.6-6.25,14.43l-15.15,35,3.53,5.78"/><path class="cls-2" d="M545.11,121.69a70.61,70.61,0,0,1-22.67,1.77"/><path class="cls-19" d="M516.8,137.39c-2.87,2.46-7.2,3.94-13.75,2.85-20.33-3.39-37.28-4-56.6,6-25.3,13-44.83,34.52-61.74,56.94-18,23.83-36.28,49.21-50.27,75.65-13.34,25.2-20.4,57.9-7.75,84.78C341.93,396,377.58,402.13,409,391.14l-48.18,91.5L446.17,514l30.05-102.2h0l2-6.94h0l19.37-65.27Z"/><path class="cls-19" d="M409,391.14C479.31,344.57,517.6,218.88,517.6,218.88l-41.9-39.23L366.13,298.26"/><path class="cls-11" d="M514.61,141.17s11.37-.1,15.85,3.34a3.31,3.31,0,0,1-1.11,5.65c-2.34.62-6.32,1.07-12.32-.06a1.84,1.84,0,0,0-2,2.09,98.51,98.51,0,0,1-.51,21.37l-12.9-31.92Z"/><path class="cls-11" d="M504.06,132.18s14.71-1.89,21.11,1.39a3.69,3.69,0,0,1-.44,6.72c-2.92,1.08-8,2.23-16,1.85a2.22,2.22,0,0,0-2.26,2.74,103.27,103.27,0,0,1,3.08,24.83l-22.28-35Z"/><path class="cls-11" d="M514.59,178.79A28.18,28.18,0,0,1,521,159.1c1.52-1.78,7.27-4.59,6.63,0a375.63,375.63,0,0,1-10.41,49.26Q515.94,193.59,514.59,178.79Z"/><path class="cls-11" d="M480.52,184.16c-2.75-13.38-4.93-27.88-3.29-41.52.56-4.62,1.52-8.71,5-12.12,7.59-7.52,22.54-9.55,32.37-6.58a3.14,3.14,0,0,1,.93,5.54c-3,2.26-8.53,5.08-18.33,7.18a2.2,2.2,0,0,0-1.24,3.57c7.83,9.31,30.49,40.35,19.46,76.57Z"/><path class="cls-11" d="M699.91,400.84l2.89-1.51a35,35,0,0,1,21.66-3.59c12.28,1.92,30.64,5.82,37.71,12.56a4.85,4.85,0,0,1-3,8.29,78.48,78.48,0,0,1-19.46-1l-.86,54.33s-32.92,5.22-59.1-23.69Z"/><path class="cls-13" d="M532.08,974.4l-21.56-1.66a7.15,7.15,0,0,1-6.56-8l7.5-64.39,31.32,28.1-3,39.32A7.15,7.15,0,0,1,532.08,974.4Z"/><path class="cls-14" d="M522.46,920.68c-6-5.42-9.32-12.47-11-20.28h0L504,964.79a7.15,7.15,0,0,0,6.56,8l4.73.37,3.85-32.69a9.72,9.72,0,0,1,12.2-8.24l6.55,1.79h0Q529.92,927.47,522.46,920.68Z"/><path class="cls-2" d="M532.08,974.4l-21.56-1.66a7.15,7.15,0,0,1-6.56-8l7.5-64.39,31.32,28.1-3,39.32A7.15,7.15,0,0,1,532.08,974.4Z"/><path class="cls-13" d="M515.17,845.73,614,860.88c-.75-.12,3.13,26,3.78,28.33a106.12,106.12,0,0,0,13,29.25c12.58,19.58,32.48,32.63,49,48.65,5.21,5.06,10.31,13.36,4.12,19.79-10.89,11.32-38.07,4.67-50.65.75-41-12.78-79.24-38.29-110.77-67C503.12,903.08,511.15,868.46,515.17,845.73Z"/><path class="cls-14" d="M560,860.88H614l-98.78-15.15c-4,22.73-12,57.35,7.29,74.95,26.53,24.13,57.81,46,91.49,60h0c-54.09-26.1-74.46-58.33-81.69-82.77A28.88,28.88,0,0,1,560,860.88Z"/><path class="cls-2" d="M515.17,845.73,614,860.88c-.75-.12,3.13,26,3.78,28.33a106.12,106.12,0,0,0,13,29.25c12.58,19.58,32.48,32.63,49,48.65,5.21,5.06,10.31,13.36,4.12,19.79-10.89,11.32-38.07,4.67-50.65.75-41-12.78-79.24-38.29-110.77-67C503.12,903.08,511.15,868.46,515.17,845.73Z"/><path class="cls-19" d="M702.36,395.31s-54.21-35.21-76.56-82.15l1.12,117.36s22.91,19.56,46.94,29.06Z"/><polygon class="cls-20" points="301.98 358.95 375.08 153.21 239.94 321.73 301.98 358.95"/><polygon class="cls-21" points="301.98 358.95 285.12 315.53 239.94 321.73 301.98 358.95"/><polygon class="cls-2" points="301.98 358.95 375.08 153.21 239.94 321.73 301.98 358.95"/><polyline class="cls-2" points="365 171.09 285.12 315.53 298.37 349.66"/><line class="cls-2" x1="247.37" y1="320.71" x2="285.12" y2="315.53"/><path class="cls-2" d="M394.12,160.41S477.64,91,521,159.1"/><path class="cls-22" d="M412.82,147.56c17.37-10.34,44.26-22.34,69.39-17.13"/><path class="cls-22" d="M412.82,160.29c13.54-9.21,39.62-24.2,65.83-24.22"/><polygon class="cls-23" points="331.29 165.22 215.26 345.64 131.67 260.46 322.53 153.21 331.29 165.22"/><polygon class="cls-24" points="200.81 275.9 215.26 345.64 131.67 260.46 200.81 275.9"/><polygon class="cls-2" points="331.29 165.22 215.26 345.64 131.67 260.46 322.53 153.21 331.29 165.22"/><polyline class="cls-2" points="322.53 160.41 200.81 275.9 213.31 336.22"/><line class="cls-2" x1="141.76" y1="262.71" x2="200.89" y2="275.76"/><path class="cls-2" d="M335.71,160.41s132.07-81.06,186.43-2.27"/><path class="cls-22" d="M425.72,126c19.91-3.4,40.54-3.51,58.94,3.07"/><path class="cls-2" d="M349.55,175.22c31.95-21.77,120.69-73.48,172.15-16.75"/><path class="cls-22" d="M414.53,141.62c20.9-7.26,43.6-11.33,64.71-7.22"/><line class="cls-2" x1="244.06" y1="174.47" x2="224.71" y2="208.18"/><polygon class="cls-3" points="801.46 519.51 842.82 729.72 890.82 701.15 816.91 504.35 801.46 519.51"/><polygon class="cls-25" points="859.33 685.04 842.82 729.72 890.82 701.15 859.33 685.04"/><polygon class="cls-2" points="801.46 519.51 842.82 729.72 890.82 701.15 816.91 504.35 801.46 519.51"/><polyline class="cls-2" points="811.19 517.79 859.33 685.04 846.78 718.98"/><line class="cls-2" x1="885.46" y1="698.47" x2="859.33" y2="685.04"/><path class="cls-11" d="M717,416.8c-2-6.84,12.29-4.84,16.52-4.11,8.31,2,20.88,3.46,23.42,13.09,1.29,13.29-31.08,0-38.25-6.36A5.7,5.7,0,0,1,717,416.8Z"/><path class="cls-11" d="M715.17,429c-1.55-6.7,11.89-4.11,16.19-3.12l.35.09c7.66,2.31,19,4.39,21.67,12.87a5.54,5.54,0,0,1,.19,2.77c-2.06,10.18-30.55-3.59-36.9-9.95A5.45,5.45,0,0,1,715.17,429Z"/><path class="cls-11" d="M714.53,441.81c-.5-5.76,11.33-3.1,15.19-2.15,7.36,2.38,18.6,4.54,20.24,13.41.27,12-27.72-1.92-34-8.23A4.9,4.9,0,0,1,714.53,441.81Z"/><path class="cls-11" d="M714.75,455.38a4.42,4.42,0,0,1-1.12-3.32c.87-8.05,24.83,3.4,28.09,6.82,2.19,1.77,4,4.11,3.86,7.07C744.75,477.08,720.34,462,714.75,455.38Z"/><path class="cls-2" d="M752.88,431.22c15.12,18.46,30.93,58.55,42.81,109.22"/><path class="cls-2" d="M719,438.23c.45-1.26.92-2.47,1.41-3.61"/><path class="cls-2" d="M715.78,449.5c.32-1.39.63-2.64,1-3.94"/><path class="cls-2" d="M711.59,536.75c-1.88-32.7-.79-61,3-81.54"/><polyline class="cls-4" points="801.46 519.51 687.01 521.85 679.78 734.26 842.82 729.72 801.46 519.51 687.01 521.85 801.46 519.51"/><path class="cls-2" d="M329.29,332.73s-1.05,40.37,30.62,46.32"/><path class="cls-26" d="M495.28,275.76C477.05,315.3,448,365.35,409,391.14l-48.18,91.5L446.17,514l-46.89-32.08a26.72,26.72,0,0,1-11.43-19.44c-1.11-12,7.62-22.29,13.8-31.69a351.38,351.38,0,0,1,23.43-32.37c9.82-11.8,19.1-23.59,27.27-36.63,14.14-22.58,26.1-46.57,36.7-71C491.2,285.78,493.33,280.8,495.28,275.76Z"/><path class="cls-2" d="M384.71,203.15c-18,23.83-36.28,49.21-50.27,75.65-13.34,25.2-20.4,57.9-7.75,84.78C341.93,396,377.58,402.13,409,391.14l-48.18,91.5L446.17,514l30.05-102.2h0l2-6.94h0l19.37-65.27"/><path class="cls-26" d="M690.22,421.66l-5.65,6.65a20.81,20.81,0,0,1-28.46,3,97.24,97.24,0,0,1-29.54-37.5l.35,36.68s22.91,19.56,46.94,29.06l15.67-35.34Z"/><path class="cls-2" d="M702.36,395.31s-54.21-35.21-76.56-82.15l1.12,117.36s22.91,19.56,46.94,29.06Z"/><polyline class="cls-2" points="801.46 519.51 687.01 521.85 679.78 734.26 842.82 729.72 801.46 519.51 687.01 521.85 801.46 519.51"/><path class="cls-26" d="M441.87,216.28l2.94-14.65a2.28,2.28,0,0,0-4.08-1.78l-58.31,80.78Z"/><path class="cls-2" d="M409,391.14C479.31,344.57,517.6,218.88,517.6,218.88l-41.9-39.23L366.13,298.26"/><path class="cls-27" d="M606.66,227.91l0,0Z"/><path class="cls-27" d="M605,227.19l.18.08Z"/></svg>